<svg width="664" height="434" viewBox="0 0 664 434" fill="none" xmlns="http://www.w3.org/2000/svg">
<rect x="0.83" y="0.994063" width="662.34" height="431.6" rx="15.77" fill="white" stroke="#EAEBF0" stroke-width="1.66"/>
<circle cx="64.7401" cy="401.846" r="9.96" stroke="#0A4BFF" stroke-width="3.32"/>
<path d="M93.3919 409.205C92.3959 409.205 91.4995 409.092 90.7027 408.866C89.9059 408.641 89.222 408.315 88.651 407.89C88.0799 407.465 87.635 406.941 87.3163 406.317C87.0109 405.679 86.8449 404.962 86.8183 404.165H90.2446C90.3375 404.975 90.643 405.566 91.1609 405.938C91.6921 406.31 92.4358 406.496 93.3919 406.496C93.7239 406.496 94.0426 406.463 94.3481 406.396C94.6535 406.33 94.9258 406.23 95.1648 406.097C95.4038 405.951 95.5898 405.772 95.7226 405.56C95.8686 405.334 95.9417 405.068 95.9417 404.763C95.9417 404.444 95.862 404.179 95.7026 403.966C95.5566 403.754 95.3374 403.574 95.0453 403.428C94.7531 403.282 94.3946 403.156 93.9696 403.05C93.5446 402.93 93.0666 402.811 92.5354 402.691C91.8182 402.532 91.141 402.353 90.5035 402.153C89.8661 401.954 89.3083 401.695 88.8302 401.376C88.3522 401.044 87.9737 400.633 87.6948 400.141C87.4292 399.637 87.2964 398.999 87.2964 398.229C87.2964 397.459 87.4425 396.795 87.7346 396.237C88.0268 395.679 88.4318 395.221 88.9498 394.863C89.4677 394.491 90.0786 394.219 90.7824 394.046C91.4862 393.86 92.2498 393.767 93.0732 393.767C93.8833 393.767 94.6336 393.86 95.3242 394.046C96.0147 394.232 96.6123 394.511 97.117 394.883C97.6216 395.254 98.0266 395.719 98.3321 396.277C98.6375 396.821 98.8168 397.459 98.8699 398.189H95.5433C95.4503 397.605 95.1847 397.153 94.7465 396.835C94.3082 396.516 93.7173 396.357 92.9736 396.357C92.2698 396.357 91.7054 396.496 91.2804 396.775C90.8554 397.054 90.643 397.426 90.643 397.89C90.643 398.183 90.7226 398.422 90.882 398.608C91.0414 398.793 91.2738 398.959 91.5792 399.106C91.8846 399.238 92.2565 399.358 92.6947 399.464C93.1462 399.57 93.6642 399.69 94.2485 399.823C94.9125 399.969 95.5499 400.148 96.1608 400.361C96.785 400.56 97.3294 400.832 97.7942 401.177C98.2723 401.523 98.6508 401.954 98.9297 402.472C99.2218 402.99 99.3679 403.641 99.3679 404.424C99.3679 405.194 99.2152 405.878 98.9098 406.476C98.6043 407.06 98.1794 407.558 97.6349 407.97C97.1037 408.368 96.4729 408.674 95.7425 408.886C95.0254 409.099 94.2418 409.205 93.3919 409.205ZM100.297 398.249H101.891V394.863H104.959V398.249H107.03V400.241H104.959V405.5C104.959 405.898 105.058 406.171 105.258 406.317C105.47 406.449 105.762 406.516 106.134 406.516C106.24 406.516 106.36 406.516 106.493 406.516C106.625 406.503 106.745 406.489 106.851 406.476H107.011V408.807C106.838 408.833 106.599 408.866 106.293 408.906C105.988 408.946 105.623 408.966 105.198 408.966C104.706 408.966 104.255 408.926 103.843 408.846C103.445 408.753 103.1 408.601 102.807 408.388C102.515 408.163 102.289 407.877 102.13 407.532C101.971 407.173 101.891 406.722 101.891 406.177V400.241H100.297V398.249ZM113.777 409.185C112.927 409.185 112.157 409.046 111.466 408.767C110.775 408.475 110.185 408.076 109.693 407.572C109.202 407.067 108.823 406.476 108.558 405.799C108.292 405.108 108.159 404.364 108.159 403.568C108.159 402.771 108.292 402.034 108.558 401.357C108.823 400.666 109.202 400.068 109.693 399.564C110.185 399.059 110.775 398.667 111.466 398.388C112.157 398.096 112.927 397.95 113.777 397.95C114.613 397.95 115.377 398.096 116.068 398.388C116.758 398.667 117.342 399.059 117.821 399.564C118.312 400.068 118.69 400.666 118.956 401.357C119.222 402.034 119.354 402.771 119.354 403.568C119.354 404.364 119.222 405.108 118.956 405.799C118.69 406.476 118.312 407.067 117.821 407.572C117.342 408.076 116.758 408.475 116.068 408.767C115.377 409.046 114.613 409.185 113.777 409.185ZM113.757 406.914C114.54 406.914 115.138 406.609 115.55 405.998C115.975 405.374 116.187 404.564 116.187 403.568C116.187 402.558 115.975 401.742 115.55 401.117C115.138 400.493 114.54 400.181 113.757 400.181C112.96 400.181 112.356 400.493 111.944 401.117C111.532 401.742 111.327 402.558 111.327 403.568C111.327 404.564 111.532 405.374 111.944 405.998C112.356 406.609 112.96 406.914 113.757 406.914ZM126.012 409.185C125.162 409.185 124.392 409.046 123.701 408.767C123.024 408.475 122.44 408.076 121.948 407.572C121.47 407.067 121.098 406.476 120.833 405.799C120.567 405.108 120.434 404.364 120.434 403.568C120.434 402.771 120.56 402.034 120.813 401.357C121.078 400.666 121.45 400.068 121.928 399.564C122.406 399.059 122.984 398.667 123.661 398.388C124.339 398.096 125.096 397.95 125.932 397.95C126.636 397.95 127.273 398.05 127.844 398.249C128.416 398.435 128.907 398.701 129.319 399.046C129.744 399.391 130.089 399.809 130.354 400.301C130.62 400.779 130.799 401.303 130.892 401.874H127.864C127.758 401.383 127.546 400.998 127.227 400.719C126.908 400.427 126.49 400.281 125.972 400.281C125.175 400.281 124.578 400.58 124.179 401.177C123.794 401.775 123.602 402.572 123.602 403.568C123.602 404.537 123.794 405.321 124.179 405.918C124.578 406.516 125.175 406.815 125.972 406.815C126.556 406.815 127.014 406.649 127.346 406.317C127.692 405.985 127.898 405.513 127.964 404.902H130.972C130.945 405.5 130.806 406.064 130.554 406.595C130.315 407.113 129.983 407.565 129.558 407.95C129.133 408.335 128.615 408.634 128.004 408.846C127.406 409.072 126.742 409.185 126.012 409.185ZM136.572 404.225L135.517 405.321V408.846H132.429V394.026H135.517V398.647C135.517 399.431 135.503 400.108 135.477 400.679C135.464 401.25 135.444 401.708 135.417 402.054L138.903 398.249H142.528L138.744 402.173L142.967 408.846H139.341L136.572 404.225ZM149.203 394.026H155.796C157.523 394.026 158.844 394.484 159.76 395.4C160.212 395.852 160.557 396.377 160.796 396.974C161.049 397.558 161.175 398.216 161.175 398.946C161.175 399.65 161.055 400.294 160.816 400.878C160.59 401.463 160.258 401.967 159.82 402.392C159.395 402.804 158.877 403.129 158.266 403.368C157.655 403.594 156.965 403.707 156.195 403.707H152.649V408.846H149.203V394.026ZM152.649 401.018H155.537C156.254 401.018 156.799 400.832 157.171 400.46C157.556 400.088 157.748 399.584 157.748 398.946C157.748 398.295 157.556 397.797 157.171 397.452C156.799 397.094 156.261 396.914 155.557 396.914H152.649V401.018ZM165.648 400.141H165.707C166.053 399.398 166.464 398.867 166.942 398.548C167.421 398.229 167.992 398.07 168.656 398.07C168.974 398.07 169.193 398.096 169.313 398.149V400.878H169.233C169.008 400.839 168.788 400.819 168.576 400.819C167.726 400.805 167.042 401.064 166.524 401.596C166.02 402.113 165.767 402.89 165.767 403.926V408.846H162.64V398.249H165.648V400.141ZM170.79 394.026H173.957V396.755H170.79V394.026ZM170.81 398.249H173.937V408.846H170.81V398.249ZM181.084 409.185C180.234 409.185 179.463 409.046 178.773 408.767C178.096 408.475 177.511 408.076 177.02 407.572C176.542 407.067 176.17 406.476 175.904 405.799C175.639 405.108 175.506 404.364 175.506 403.568C175.506 402.771 175.632 402.034 175.885 401.357C176.15 400.666 176.522 400.068 177 399.564C177.478 399.059 178.056 398.667 178.733 398.388C179.41 398.096 180.167 397.95 181.004 397.95C181.708 397.95 182.345 398.05 182.916 398.249C183.487 398.435 183.979 398.701 184.39 399.046C184.815 399.391 185.161 399.809 185.426 400.301C185.692 400.779 185.871 401.303 185.964 401.874H182.936C182.83 401.383 182.617 400.998 182.299 400.719C181.98 400.427 181.562 400.281 181.044 400.281C180.247 400.281 179.649 400.58 179.251 401.177C178.866 401.775 178.673 402.572 178.673 403.568C178.673 404.537 178.866 405.321 179.251 405.918C179.649 406.516 180.247 406.815 181.044 406.815C181.628 406.815 182.086 406.649 182.418 406.317C182.764 405.985 182.969 405.513 183.036 404.902H186.044C186.017 405.5 185.878 406.064 185.625 406.595C185.386 407.113 185.054 407.565 184.629 407.95C184.204 408.335 183.687 408.634 183.076 408.846C182.478 409.072 181.814 409.185 181.084 409.185ZM192.6 409.165C191.737 409.165 190.96 409.026 190.27 408.747C189.579 408.455 188.988 408.056 188.497 407.552C188.019 407.047 187.647 406.456 187.381 405.779C187.129 405.101 187.003 404.364 187.003 403.568C187.003 402.771 187.136 402.034 187.401 401.357C187.667 400.666 188.039 400.068 188.517 399.564C188.995 399.059 189.566 398.667 190.23 398.388C190.894 398.096 191.631 397.95 192.441 397.95C193.198 397.95 193.875 398.07 194.473 398.309C195.084 398.548 195.622 398.88 196.086 399.305C196.684 399.889 197.122 400.613 197.401 401.476C197.68 402.339 197.813 403.295 197.799 404.345H190.071C190.177 405.141 190.442 405.765 190.867 406.217C191.292 406.669 191.883 406.894 192.64 406.894C193.132 406.894 193.53 406.808 193.835 406.635C194.154 406.449 194.4 406.19 194.572 405.858H197.6C197.467 406.323 197.255 406.761 196.963 407.173C196.684 407.572 196.332 407.923 195.907 408.229C195.495 408.521 195.011 408.747 194.453 408.906C193.895 409.079 193.278 409.165 192.6 409.165ZM192.441 400.161C191.724 400.161 191.179 400.374 190.808 400.799C190.436 401.224 190.197 401.801 190.09 402.532H194.612C194.559 401.788 194.34 401.21 193.955 400.799C193.57 400.374 193.065 400.161 192.441 400.161Z" fill="#212B38"/>
<circle cx="250.66" cy="401.846" r="9.96" stroke="#002FB3" stroke-width="3.32"/>
<path d="M273.495 394.026H280.507C282.034 394.026 283.19 394.365 283.973 395.042C284.81 395.772 285.228 396.715 285.228 397.871C285.228 399.358 284.431 400.347 282.838 400.839V400.918C283.794 401.144 284.524 401.576 285.029 402.213C285.547 402.837 285.806 403.607 285.806 404.524C285.806 405.241 285.68 405.865 285.427 406.396C285.175 406.927 284.816 407.379 284.352 407.751C283.462 408.481 282.24 408.846 280.686 408.846H273.495V394.026ZM280.029 399.982C280.613 399.982 281.078 399.849 281.423 399.584C281.782 399.305 281.961 398.886 281.961 398.329C281.961 397.784 281.789 397.373 281.443 397.094C281.111 396.801 280.653 396.655 280.069 396.655H276.862V399.982H280.029ZM280.328 406.177C280.992 406.177 281.516 405.998 281.901 405.639C282.26 405.307 282.439 404.856 282.439 404.285C282.439 403.634 282.233 403.149 281.822 402.831C281.41 402.512 280.892 402.353 280.268 402.353H276.862V406.177H280.328ZM290.426 400.141H290.486C290.831 399.398 291.243 398.867 291.721 398.548C292.199 398.229 292.77 398.07 293.434 398.07C293.753 398.07 293.972 398.096 294.092 398.149V400.878H294.012C293.786 400.839 293.567 400.819 293.355 400.819C292.505 400.805 291.821 401.064 291.303 401.596C290.798 402.113 290.546 402.89 290.546 403.926V408.846H287.418V398.249H290.426V400.141ZM300.494 409.165C299.631 409.165 298.854 409.026 298.163 408.747C297.473 408.455 296.882 408.056 296.39 407.552C295.912 407.047 295.54 406.456 295.275 405.779C295.022 405.101 294.896 404.364 294.896 403.568C294.896 402.771 295.029 402.034 295.295 401.357C295.56 400.666 295.932 400.068 296.41 399.564C296.888 399.059 297.459 398.667 298.123 398.388C298.787 398.096 299.524 397.95 300.334 397.95C301.091 397.95 301.769 398.07 302.366 398.309C302.977 398.548 303.515 398.88 303.98 399.305C304.577 399.889 305.016 400.613 305.295 401.476C305.573 402.339 305.706 403.295 305.693 404.345H297.964C298.07 405.141 298.336 405.765 298.761 406.217C299.186 406.669 299.777 406.894 300.534 406.894C301.025 406.894 301.423 406.808 301.729 406.635C302.048 406.449 302.293 406.19 302.466 405.858H305.494C305.361 406.323 305.148 406.761 304.856 407.173C304.577 407.572 304.225 407.923 303.801 408.229C303.389 408.521 302.904 408.747 302.346 408.906C301.789 409.079 301.171 409.165 300.494 409.165ZM300.334 400.161C299.617 400.161 299.073 400.374 298.701 400.799C298.329 401.224 298.09 401.801 297.984 402.532H302.506C302.453 401.788 302.233 401.21 301.848 400.799C301.463 400.374 300.959 400.161 300.334 400.161ZM314.053 408.846C313.974 408.727 313.901 408.561 313.834 408.348C313.768 408.123 313.721 407.857 313.695 407.552H313.655C313.31 408.043 312.891 408.428 312.4 408.707C311.922 408.986 311.271 409.125 310.448 409.125C309.93 409.125 309.445 409.052 308.994 408.906C308.555 408.773 308.17 408.574 307.838 408.309C307.52 408.043 307.267 407.711 307.081 407.313C306.909 406.901 306.822 406.436 306.822 405.918C306.822 405.334 306.929 404.849 307.141 404.464C307.367 404.079 307.666 403.767 308.038 403.528C308.409 403.289 308.848 403.109 309.352 402.99C309.857 402.857 310.401 402.758 310.986 402.691C311.929 402.558 312.606 402.399 313.018 402.213C313.443 402.027 313.655 401.735 313.655 401.337C313.655 400.951 313.529 400.646 313.277 400.42C313.024 400.181 312.626 400.062 312.081 400.062C311.484 400.062 311.032 400.188 310.727 400.44C310.435 400.693 310.269 401.031 310.229 401.456H307.34C307.354 401.005 307.46 400.566 307.659 400.141C307.858 399.716 308.15 399.345 308.536 399.026C308.921 398.694 309.405 398.435 309.99 398.249C310.574 398.05 311.258 397.95 312.041 397.95C312.719 397.95 313.303 398.003 313.794 398.11C314.286 398.203 314.717 398.362 315.089 398.588C315.647 398.906 316.052 399.338 316.304 399.882C316.57 400.414 316.703 401.038 316.703 401.755V407.193C316.703 408.003 316.836 408.495 317.101 408.667V408.846H314.053ZM311.424 407.074C312.128 407.074 312.686 406.881 313.097 406.496C313.522 406.111 313.735 405.626 313.735 405.042V403.667C313.509 403.813 313.23 403.933 312.898 404.026C312.579 404.105 312.247 404.185 311.902 404.265C311.211 404.411 310.7 404.59 310.368 404.803C310.036 405.015 309.87 405.354 309.87 405.819C309.87 406.283 310.023 406.609 310.328 406.795C310.634 406.981 310.999 407.074 311.424 407.074ZM322.959 404.225L321.903 405.321V408.846H318.816V394.026H321.903V398.647C321.903 399.431 321.89 400.108 321.864 400.679C321.85 401.25 321.83 401.708 321.804 402.054L325.29 398.249H328.915L325.13 402.173L329.354 408.846H325.728L322.959 404.225ZM334.867 409.165C334.004 409.165 333.227 409.026 332.537 408.747C331.846 408.455 331.255 408.056 330.764 407.552C330.286 407.047 329.914 406.456 329.648 405.779C329.396 405.101 329.27 404.364 329.27 403.568C329.27 402.771 329.403 402.034 329.668 401.357C329.934 400.666 330.306 400.068 330.784 399.564C331.262 399.059 331.833 398.667 332.497 398.388C333.161 398.096 333.898 397.95 334.708 397.95C335.465 397.95 336.142 398.07 336.74 398.309C337.351 398.548 337.889 398.88 338.353 399.305C338.951 399.889 339.389 400.613 339.668 401.476C339.947 402.339 340.08 403.295 340.067 404.345H332.338C332.444 405.141 332.709 405.765 333.134 406.217C333.559 406.669 334.15 406.894 334.907 406.894C335.399 406.894 335.797 406.808 336.103 406.635C336.421 406.449 336.667 406.19 336.84 405.858H339.867C339.735 406.323 339.522 406.761 339.23 407.173C338.951 407.572 338.599 407.923 338.174 408.229C337.763 408.521 337.278 408.747 336.72 408.906C336.162 409.079 335.545 409.165 334.867 409.165ZM334.708 400.161C333.991 400.161 333.447 400.374 333.075 400.799C332.703 401.224 332.464 401.801 332.358 402.532H336.879C336.826 401.788 336.607 401.21 336.222 400.799C335.837 400.374 335.332 400.161 334.708 400.161ZM340.406 398.249H343.633L344.928 402.512C345.034 402.87 345.134 403.262 345.227 403.687C345.333 404.112 345.426 404.517 345.506 404.902C345.599 405.341 345.685 405.779 345.765 406.217H345.825C345.904 405.779 345.991 405.341 346.084 404.902C346.163 404.517 346.25 404.112 346.342 403.687C346.449 403.262 346.555 402.87 346.661 402.512L347.996 398.249H351.143L347.438 408.846H344.072L340.406 398.249ZM356.986 409.165C356.122 409.165 355.346 409.026 354.655 408.747C353.964 408.455 353.374 408.056 352.882 407.552C352.404 407.047 352.032 406.456 351.767 405.779C351.514 405.101 351.388 404.364 351.388 403.568C351.388 402.771 351.521 402.034 351.787 401.357C352.052 400.666 352.424 400.068 352.902 399.564C353.38 399.059 353.951 398.667 354.615 398.388C355.279 398.096 356.016 397.95 356.826 397.95C357.583 397.95 358.261 398.07 358.858 398.309C359.469 398.548 360.007 398.88 360.472 399.305C361.069 399.889 361.508 400.613 361.786 401.476C362.065 402.339 362.198 403.295 362.185 404.345H354.456C354.562 405.141 354.828 405.765 355.253 406.217C355.678 406.669 356.269 406.894 357.026 406.894C357.517 406.894 357.915 406.808 358.221 406.635C358.539 406.449 358.785 406.19 358.958 405.858H361.986C361.853 406.323 361.64 406.761 361.348 407.173C361.069 407.572 360.717 407.923 360.292 408.229C359.881 408.521 359.396 408.747 358.838 408.906C358.28 409.079 357.663 409.165 356.986 409.165ZM356.826 400.161C356.109 400.161 355.565 400.374 355.193 400.799C354.821 401.224 354.582 401.801 354.476 402.532H358.998C358.944 401.788 358.725 401.21 358.34 400.799C357.955 400.374 357.45 400.161 356.826 400.161ZM366.78 399.863H366.84C367.172 399.225 367.61 398.747 368.155 398.428C368.713 398.11 369.363 397.95 370.107 397.95C371.276 397.95 372.179 398.309 372.816 399.026C373.467 399.73 373.792 400.679 373.792 401.874V408.846H370.685V402.472C370.685 401.888 370.532 401.423 370.227 401.078C369.934 400.719 369.496 400.54 368.912 400.54C368.301 400.54 367.81 400.759 367.438 401.197C367.066 401.635 366.88 402.193 366.88 402.87V408.846H363.753V398.249H366.78V399.863ZM380.799 394.026H387.392C389.119 394.026 390.44 394.484 391.356 395.4C391.808 395.852 392.153 396.377 392.392 396.974C392.644 397.558 392.771 398.216 392.771 398.946C392.771 399.65 392.651 400.294 392.412 400.878C392.186 401.463 391.854 401.967 391.416 402.392C390.991 402.804 390.473 403.129 389.862 403.368C389.251 403.594 388.561 403.707 387.791 403.707H384.245V408.846H380.799V394.026ZM384.245 401.018H387.133C387.85 401.018 388.395 400.832 388.767 400.46C389.152 400.088 389.344 399.584 389.344 398.946C389.344 398.295 389.152 397.797 388.767 397.452C388.395 397.094 387.857 396.914 387.153 396.914H384.245V401.018ZM397.244 400.141H397.303C397.649 399.398 398.06 398.867 398.538 398.548C399.016 398.229 399.587 398.07 400.251 398.07C400.57 398.07 400.789 398.096 400.909 398.149V400.878H400.829C400.603 400.839 400.384 400.819 400.172 400.819C399.322 400.805 398.638 401.064 398.12 401.596C397.615 402.113 397.363 402.89 397.363 403.926V408.846H394.236V398.249H397.244V400.141ZM402.386 394.026H405.553V396.755H402.386V394.026ZM402.406 398.249H405.533V408.846H402.406V398.249ZM412.679 409.185C411.83 409.185 411.059 409.046 410.369 408.767C409.691 408.475 409.107 408.076 408.616 407.572C408.138 407.067 407.766 406.476 407.5 405.799C407.235 405.108 407.102 404.364 407.102 403.568C407.102 402.771 407.228 402.034 407.48 401.357C407.746 400.666 408.118 400.068 408.596 399.564C409.074 399.059 409.652 398.667 410.329 398.388C411.006 398.096 411.763 397.95 412.6 397.95C413.304 397.95 413.941 398.05 414.512 398.249C415.083 398.435 415.575 398.701 415.986 399.046C416.411 399.391 416.756 399.809 417.022 400.301C417.288 400.779 417.467 401.303 417.56 401.874H414.532C414.426 401.383 414.213 400.998 413.895 400.719C413.576 400.427 413.158 400.281 412.64 400.281C411.843 400.281 411.245 400.58 410.847 401.177C410.462 401.775 410.269 402.572 410.269 403.568C410.269 404.537 410.462 405.321 410.847 405.918C411.245 406.516 411.843 406.815 412.64 406.815C413.224 406.815 413.682 406.649 414.014 406.317C414.359 405.985 414.565 405.513 414.632 404.902H417.64C417.613 405.5 417.474 406.064 417.221 406.595C416.982 407.113 416.65 407.565 416.225 407.95C415.8 408.335 415.282 408.634 414.671 408.846C414.074 409.072 413.41 409.185 412.679 409.185ZM424.196 409.165C423.333 409.165 422.556 409.026 421.866 408.747C421.175 408.455 420.584 408.056 420.093 407.552C419.615 407.047 419.243 406.456 418.977 405.779C418.725 405.101 418.599 404.364 418.599 403.568C418.599 402.771 418.732 402.034 418.997 401.357C419.263 400.666 419.635 400.068 420.113 399.564C420.591 399.059 421.162 398.667 421.826 398.388C422.49 398.096 423.227 397.95 424.037 397.95C424.794 397.95 425.471 398.07 426.069 398.309C426.68 398.548 427.217 398.88 427.682 399.305C428.28 399.889 428.718 400.613 428.997 401.476C429.276 402.339 429.409 403.295 429.395 404.345H421.666C421.773 405.141 422.038 405.765 422.463 406.217C422.888 406.669 423.479 406.894 424.236 406.894C424.727 406.894 425.126 406.808 425.431 406.635C425.75 406.449 425.996 406.19 426.168 405.858H429.196C429.063 406.323 428.851 406.761 428.559 407.173C428.28 407.572 427.928 407.923 427.503 408.229C427.091 408.521 426.607 408.747 426.049 408.906C425.491 409.079 424.874 409.165 424.196 409.165ZM424.037 400.161C423.32 400.161 422.775 400.374 422.403 400.799C422.032 401.224 421.793 401.801 421.686 402.532H426.208C426.155 401.788 425.936 401.21 425.551 400.799C425.166 400.374 424.661 400.161 424.037 400.161Z" fill="#212B38"/>
<circle cx="471.74" cy="401.846" r="9.96" stroke="#03174D" stroke-width="3.32" stroke-linecap="round" stroke-dasharray="9.96 9.96"/>
<path d="M500.392 409.205C499.396 409.205 498.5 409.092 497.703 408.866C496.906 408.641 496.222 408.315 495.651 407.89C495.08 407.465 494.635 406.941 494.316 406.317C494.011 405.679 493.845 404.962 493.818 404.165H497.245C497.338 404.975 497.643 405.566 498.161 405.938C498.692 406.31 499.436 406.496 500.392 406.496C500.724 406.496 501.043 406.463 501.348 406.396C501.654 406.33 501.926 406.23 502.165 406.097C502.404 405.951 502.59 405.772 502.723 405.56C502.869 405.334 502.942 405.068 502.942 404.763C502.942 404.444 502.862 404.179 502.703 403.966C502.557 403.754 502.337 403.574 502.045 403.428C501.753 403.282 501.395 403.156 500.97 403.05C500.545 402.93 500.067 402.811 499.535 402.691C498.818 402.532 498.141 402.353 497.504 402.153C496.866 401.954 496.308 401.695 495.83 401.376C495.352 401.044 494.974 400.633 494.695 400.141C494.429 399.637 494.296 398.999 494.296 398.229C494.296 397.459 494.442 396.795 494.735 396.237C495.027 395.679 495.432 395.221 495.95 394.863C496.468 394.491 497.079 394.219 497.782 394.046C498.486 393.86 499.25 393.767 500.073 393.767C500.883 393.767 501.634 393.86 502.324 394.046C503.015 394.232 503.612 394.511 504.117 394.883C504.622 395.254 505.027 395.719 505.332 396.277C505.638 396.821 505.817 397.459 505.87 398.189H502.543C502.45 397.605 502.185 397.153 501.746 396.835C501.308 396.516 500.717 396.357 499.974 396.357C499.27 396.357 498.705 396.496 498.28 396.775C497.855 397.054 497.643 397.426 497.643 397.89C497.643 398.183 497.723 398.422 497.882 398.608C498.041 398.793 498.274 398.959 498.579 399.106C498.885 399.238 499.256 399.358 499.695 399.464C500.146 399.57 500.664 399.69 501.248 399.823C501.912 399.969 502.55 400.148 503.161 400.361C503.785 400.56 504.329 400.832 504.794 401.177C505.272 401.523 505.651 401.954 505.93 402.472C506.222 402.99 506.368 403.641 506.368 404.424C506.368 405.194 506.215 405.878 505.91 406.476C505.604 407.06 505.179 407.558 504.635 407.97C504.104 408.368 503.473 408.674 502.742 408.886C502.025 409.099 501.242 409.205 500.392 409.205ZM507.297 398.249H508.891V394.863H511.959V398.249H514.03V400.241H511.959V405.5C511.959 405.898 512.058 406.171 512.258 406.317C512.47 406.449 512.762 406.516 513.134 406.516C513.24 406.516 513.36 406.516 513.493 406.516C513.625 406.503 513.745 406.489 513.851 406.476H514.011V408.807C513.838 408.833 513.599 408.866 513.293 408.906C512.988 408.946 512.623 408.966 512.198 408.966C511.706 408.966 511.255 408.926 510.843 408.846C510.445 408.753 510.1 408.601 509.807 408.388C509.515 408.163 509.289 407.877 509.13 407.532C508.971 407.173 508.891 406.722 508.891 406.177V400.241H507.297V398.249ZM518.665 400.141H518.725C519.07 399.398 519.482 398.867 519.96 398.548C520.438 398.229 521.009 398.07 521.673 398.07C521.992 398.07 522.211 398.096 522.331 398.149V400.878H522.251C522.025 400.839 521.806 400.819 521.593 400.819C520.744 400.805 520.06 401.064 519.542 401.596C519.037 402.113 518.785 402.89 518.785 403.926V408.846H515.657V398.249H518.665V400.141ZM523.808 394.026H526.975V396.755H523.808V394.026ZM523.828 398.249H526.955V408.846H523.828V398.249ZM533.165 404.225L532.109 405.321V408.846H529.022V394.026H532.109V398.647C532.109 399.431 532.096 400.108 532.069 400.679C532.056 401.25 532.036 401.708 532.01 402.054L535.496 398.249H539.121L535.336 402.173L539.559 408.846H535.934L533.165 404.225ZM545.073 409.165C544.21 409.165 543.433 409.026 542.743 408.747C542.052 408.455 541.461 408.056 540.97 407.552C540.492 407.047 540.12 406.456 539.854 405.779C539.602 405.101 539.476 404.364 539.476 403.568C539.476 402.771 539.609 402.034 539.874 401.357C540.14 400.666 540.512 400.068 540.99 399.564C541.468 399.059 542.039 398.667 542.703 398.388C543.367 398.096 544.104 397.95 544.914 397.95C545.671 397.95 546.348 398.07 546.946 398.309C547.557 398.548 548.094 398.88 548.559 399.305C549.157 399.889 549.595 400.613 549.874 401.476C550.153 402.339 550.286 403.295 550.272 404.345H542.543C542.65 405.141 542.915 405.765 543.34 406.217C543.765 406.669 544.356 406.894 545.113 406.894C545.604 406.894 546.003 406.808 546.308 406.635C546.627 406.449 546.873 406.19 547.045 405.858H550.073C549.94 406.323 549.728 406.761 549.436 407.173C549.157 407.572 548.805 407.923 548.38 408.229C547.968 408.521 547.484 408.747 546.926 408.906C546.368 409.079 545.751 409.165 545.073 409.165ZM544.914 400.161C544.197 400.161 543.652 400.374 543.28 400.799C542.909 401.224 542.67 401.801 542.563 402.532H547.085C547.032 401.788 546.813 401.21 546.428 400.799C546.043 400.374 545.538 400.161 544.914 400.161ZM556.864 394.026H563.458C565.184 394.026 566.505 394.484 567.422 395.4C567.873 395.852 568.219 396.377 568.458 396.974C568.71 397.558 568.836 398.216 568.836 398.946C568.836 399.65 568.717 400.294 568.478 400.878C568.252 401.463 567.92 401.967 567.482 402.392C567.057 402.804 566.539 403.129 565.928 403.368C565.317 403.594 564.626 403.707 563.856 403.707H560.31V408.846H556.864V394.026ZM560.31 401.018H563.199C563.916 401.018 564.46 400.832 564.832 400.46C565.217 400.088 565.41 399.584 565.41 398.946C565.41 398.295 565.217 397.797 564.832 397.452C564.46 397.094 563.922 396.914 563.219 396.914H560.31V401.018ZM573.309 400.141H573.369C573.714 399.398 574.126 398.867 574.604 398.548C575.082 398.229 575.653 398.07 576.317 398.07C576.636 398.07 576.855 398.096 576.974 398.149V400.878H576.895C576.669 400.839 576.45 400.819 576.237 400.819C575.387 400.805 574.703 401.064 574.186 401.596C573.681 402.113 573.429 402.89 573.429 403.926V408.846H570.301V398.249H573.309V400.141ZM578.452 394.026H581.619V396.755H578.452V394.026ZM578.471 398.249H581.599V408.846H578.471V398.249ZM588.745 409.185C587.895 409.185 587.125 409.046 586.434 408.767C585.757 408.475 585.173 408.076 584.681 407.572C584.203 407.067 583.831 406.476 583.566 405.799C583.3 405.108 583.167 404.364 583.167 403.568C583.167 402.771 583.294 402.034 583.546 401.357C583.812 400.666 584.183 400.068 584.661 399.564C585.14 399.059 585.717 398.667 586.394 398.388C587.072 398.096 587.829 397.95 588.665 397.95C589.369 397.95 590.007 398.05 590.578 398.249C591.149 398.435 591.64 398.701 592.052 399.046C592.477 399.391 592.822 399.809 593.088 400.301C593.353 400.779 593.532 401.303 593.625 401.874H590.598C590.491 401.383 590.279 400.998 589.96 400.719C589.641 400.427 589.223 400.281 588.705 400.281C587.908 400.281 587.311 400.58 586.912 401.177C586.527 401.775 586.335 402.572 586.335 403.568C586.335 404.537 586.527 405.321 586.912 405.918C587.311 406.516 587.908 406.815 588.705 406.815C589.29 406.815 589.748 406.649 590.08 406.317C590.425 405.985 590.631 405.513 590.697 404.902H593.705C593.679 405.5 593.539 406.064 593.287 406.595C593.048 407.113 592.716 407.565 592.291 407.95C591.866 408.335 591.348 408.634 590.737 408.846C590.139 409.072 589.475 409.185 588.745 409.185ZM600.262 409.165C599.399 409.165 598.622 409.026 597.931 408.747C597.241 408.455 596.65 408.056 596.158 407.552C595.68 407.047 595.308 406.456 595.043 405.779C594.79 405.101 594.664 404.364 594.664 403.568C594.664 402.771 594.797 402.034 595.063 401.357C595.328 400.666 595.7 400.068 596.178 399.564C596.656 399.059 597.227 398.667 597.891 398.388C598.555 398.096 599.292 397.95 600.102 397.95C600.859 397.95 601.537 398.07 602.134 398.309C602.745 398.548 603.283 398.88 603.748 399.305C604.345 399.889 604.784 400.613 605.062 401.476C605.341 402.339 605.474 403.295 605.461 404.345H597.732C597.838 405.141 598.104 405.765 598.529 406.217C598.954 406.669 599.545 406.894 600.302 406.894C600.793 406.894 601.191 406.808 601.497 406.635C601.816 406.449 602.061 406.19 602.234 405.858H605.262C605.129 406.323 604.916 406.761 604.624 407.173C604.345 407.572 603.993 407.923 603.568 408.229C603.157 408.521 602.672 408.747 602.114 408.906C601.557 409.079 600.939 409.165 600.262 409.165ZM600.102 400.161C599.385 400.161 598.841 400.374 598.469 400.799C598.097 401.224 597.858 401.801 597.752 402.532H602.274C602.221 401.788 602.001 401.21 601.616 400.799C601.231 400.374 600.727 400.161 600.102 400.161Z" fill="#212B38"/>
<path d="M53.1191 48.454L605.899 48.454" stroke="#CDD8FF" stroke-opacity="0.4" stroke-width="1.66"/>
<path d="M53.1191 126.012L605.899 126.012" stroke="#CDD8FF" stroke-opacity="0.4" stroke-width="1.66"/>
<path d="M53.1191 203.57L605.899 203.57" stroke="#CDD8FF" stroke-opacity="0.4" stroke-width="1.66"/>
<path d="M53.1191 281.128L605.899 281.128" stroke="#CDD8FF" stroke-opacity="0.4" stroke-width="1.66"/>
<path d="M53.1191 358.687L605.899 358.687" stroke="#CDD8FF" stroke-opacity="0.4" stroke-width="1.66"/>
<path d="M605.332 88.9263V347.658L589.388 346.208L564.747 341.135L530.684 338.236L524.161 336.062L486.475 331.713L458.935 329.539L450.238 327.365H435.743L400.956 317.943L376.315 309.971L361.82 308.522L321.96 294.752C309.639 292.094 284.418 286.635 282.099 286.055C279.2 285.33 264.705 286.055 255.284 281.707C245.862 277.358 235.716 275.184 219.771 268.661V224.452C230.884 218.171 256.733 205.174 271.228 203.435C277.026 200.777 289.926 195.318 295.144 194.738C300.362 194.158 303.6 193.53 304.566 193.289L316.162 187.491L329.207 185.316C348.05 181.451 387.766 171.691 395.883 163.574L424.872 154.877L482.127 131.686L497.346 130.236L519.088 116.466L531.409 113.567C542.441 109.25 564.713 99.9328 566.168 96.962C566.15 96.9622 566.159 96.9418 566.196 96.8984C566.188 96.9193 566.178 96.9405 566.168 96.962C566.529 96.9578 577.745 88.9263 605.332 88.9263Z" fill="#CEDBFF"/>
<path d="M605.332 309.247V159.951C579.143 159.951 576.961 163.592 574.051 164.32C571.723 164.903 557.561 166.02 550.772 166.505C535.01 169.904 502.904 177.138 500.576 178.886C498.248 180.634 462.747 184.955 445.288 186.897L403.822 194.18L381.998 198.549L354.354 205.104L329.62 208.017L301.248 215.299H291.791C287.426 215.299 271.422 220.397 262.692 221.126C255.709 221.708 231.169 228.651 219.771 232.05V261.181L267.057 270.648L296.156 272.833C309.493 273.804 337.186 276.037 341.259 277.203C345.333 278.368 371.571 281.572 384.18 283.029L403.822 284.485L450.38 288.127L500.576 297.594H517.308C523.128 297.594 578.416 305.363 605.332 309.247Z" fill="#A7BEFF"/>
<path d="M605.332 268.661V201.985C596.117 201.985 576.088 202.42 569.686 204.16C563.284 205.899 545.679 208.267 537.677 209.233C528.365 208.073 504.213 211.649 493.301 213.581C482.147 214.789 459.11 217.205 456.2 217.205H416.917L386.363 221.553L349.262 225.177L286.699 229.526H268.512L248.143 233.149L219.771 238.222V254.167L256.145 259.965H283.062L331.802 262.139H365.266L437.286 267.212L490.391 268.661H510.033L529.675 267.212L545.679 268.661H605.332Z" fill="#0A4BFF"/>
<path d="M59.7607 255.368H605.9" stroke="#002FB3" stroke-width="3.32"/>
<path d="M60.4873 239.672L80.78 236.048L98.1737 239.672L109.045 255.616L124.264 250.543L144.557 260.689H182.968L208.334 250.543H214.132H225.761" stroke="#0A4BFF" stroke-width="3.32"/>
<path d="M59.7617 247.856H605.901" stroke="#03174D" stroke-width="3.32" stroke-dasharray="9.96 9.96"/>
</svg>
