<svg width="392" height="195" viewBox="0 0 392 195" fill="none" xmlns="http://www.w3.org/2000/svg">
<rect x="0.5" y="1" width="391" height="193.04" rx="9.5" fill="white" stroke="#EAEBF0"/>
<path d="M35.7911 84.3435L356.209 84.3435" stroke="#CDD8FF" stroke-opacity="0.4"/>
<path d="M35.7911 130.361L356.209 130.361" stroke="#CDD8FF" stroke-opacity="0.4"/>
<path d="M35.7911 176.378L356.209 176.378" stroke="#CDD8FF" stroke-opacity="0.4"/>
<circle cx="146.069" cy="143.629" r="9.84925" fill="#00AE42"/>
<path d="M146.02 153.38L146.02 172.98" stroke="#00AE42" stroke-width="2"/>
<path d="M147.382 144.379C147.797 144.379 148.132 144.043 148.132 143.629C148.132 143.215 147.797 142.879 147.382 142.879V144.379ZM140.816 142.879C140.402 142.879 140.066 143.215 140.066 143.629C140.066 144.043 140.402 144.379 140.816 144.379L140.816 142.879ZM145.539 145.069C145.246 145.362 145.246 145.837 145.539 146.129C145.832 146.422 146.307 146.422 146.6 146.129L145.539 145.069ZM147.296 144.372L147.827 144.902L147.296 144.372ZM147.296 142.886L147.827 142.356L147.827 142.356L147.296 142.886ZM146.6 141.129C146.307 140.836 145.832 140.836 145.539 141.129C145.246 141.422 145.246 141.897 145.539 142.19L146.6 141.129ZM147.735 143.832L147.022 143.6L147.735 143.832ZM147.735 143.426L147.022 143.658L147.735 143.426ZM142.885 146.813C142.592 146.52 142.117 146.52 141.825 146.813C141.532 147.106 141.532 147.581 141.825 147.874L142.885 146.813ZM141.825 139.385C141.532 139.677 141.532 140.152 141.825 140.445C142.117 140.738 142.592 140.738 142.885 140.445L141.825 139.385ZM147.382 142.879L140.816 142.879L140.816 144.379L147.382 144.379V142.879ZM146.6 146.129L147.827 144.902L146.766 143.842L145.539 145.069L146.6 146.129ZM147.827 142.356L146.6 141.129L145.539 142.19L146.766 143.417L147.827 142.356ZM147.827 144.902C147.948 144.781 148.071 144.659 148.167 144.546C148.268 144.427 148.381 144.271 148.448 144.064L147.022 143.6C147.04 143.544 147.064 143.527 147.023 143.575C146.976 143.63 146.905 143.703 146.766 143.842L147.827 144.902ZM146.766 143.417C146.905 143.555 146.976 143.628 147.023 143.683C147.064 143.731 147.04 143.715 147.022 143.658L148.448 143.195C148.381 142.988 148.268 142.832 148.167 142.712C148.071 142.6 147.948 142.477 147.827 142.356L146.766 143.417ZM148.448 144.064C148.54 143.781 148.54 143.477 148.448 143.195L147.022 143.658C147.016 143.639 147.016 143.619 147.022 143.6L148.448 144.064ZM141.825 147.874C144.169 150.218 147.97 150.218 150.314 147.874L149.253 146.813C147.495 148.572 144.644 148.572 142.885 146.813L141.825 147.874ZM150.314 147.874C152.658 145.53 152.658 141.729 150.314 139.385L149.253 140.445C151.012 142.204 151.012 145.055 149.253 146.813L150.314 147.874ZM150.314 139.385C147.97 137.04 144.169 137.04 141.825 139.385L142.885 140.445C144.644 138.687 147.495 138.687 149.253 140.445L150.314 139.385Z" fill="white"/>
<path d="M313.6 79.88L313.6 112.22" stroke="#FC4138" stroke-width="2"/>
<circle cx="313.649" cy="72.0892" r="9.84925" fill="#FC4138"/>
<path d="M319.559 72.8392C319.973 72.8392 320.309 72.5034 320.309 72.0892C320.309 71.675 319.973 71.3392 319.559 71.3392V72.8392ZM313.649 71.3392C313.235 71.3392 312.899 71.675 312.899 72.0892C312.899 72.5034 313.235 72.8392 313.649 72.8392V71.3392ZM318.776 69.5891C318.483 69.2962 318.008 69.2962 317.715 69.5891C317.422 69.8819 317.422 70.3568 317.715 70.6497L318.776 69.5891ZM319.472 71.3464L318.942 71.8767L319.472 71.3464ZM319.472 72.8321L320.003 73.3624L320.003 73.3624L319.472 72.8321ZM317.715 73.5288C317.422 73.8216 317.422 74.2965 317.715 74.5894C318.008 74.8823 318.483 74.8823 318.776 74.5894L317.715 73.5288ZM319.911 71.8863L319.198 72.1181H319.198L319.911 71.8863ZM319.911 72.2921L319.198 72.0604L319.911 72.2921ZM309.935 68.3749L310.465 68.9052L309.935 68.3749ZM309.935 75.8036L309.404 76.334L309.935 75.8036ZM315.9 68.1879C316.259 68.3952 316.718 68.2725 316.925 67.9139C317.132 67.5552 317.01 67.0965 316.651 66.8892L315.9 68.1879ZM316.651 77.2893C317.01 77.082 317.132 76.6232 316.925 76.2646C316.718 75.906 316.259 75.7833 315.9 75.9906L316.651 77.2893ZM319.559 71.3392H313.649V72.8392H319.559V71.3392ZM317.715 70.6497L318.942 71.8767L320.003 70.816L318.776 69.5891L317.715 70.6497ZM318.942 72.3018L317.715 73.5288L318.776 74.5894L320.003 73.3624L318.942 72.3018ZM318.942 71.8767C319.081 72.0155 319.153 72.088 319.199 72.143C319.24 72.1913 319.216 72.1748 319.198 72.1181L320.624 71.6546C320.557 71.4479 320.444 71.2915 320.343 71.1722C320.247 71.0597 320.124 70.9373 320.003 70.816L318.942 71.8767ZM320.003 73.3624C320.124 73.2412 320.247 73.1187 320.343 73.0062C320.444 72.887 320.557 72.7305 320.624 72.5239L319.198 72.0604C319.216 72.0037 319.24 71.9872 319.199 72.0355C319.153 72.0904 319.081 72.163 318.942 72.3018L320.003 73.3624ZM319.198 72.1181C319.192 72.0993 319.192 72.0791 319.198 72.0604L320.624 72.5239C320.716 72.2414 320.716 71.9371 320.624 71.6546L319.198 72.1181ZM309.404 67.8445C307.06 70.1888 307.06 73.9897 309.404 76.334L310.465 75.2733C308.707 73.5148 308.707 70.6637 310.465 68.9052L309.404 67.8445ZM316.651 66.8892C314.355 65.5624 311.369 65.8797 309.404 67.8445L310.465 68.9052C311.938 67.4327 314.178 67.1924 315.9 68.1879L316.651 66.8892ZM309.404 76.334C311.369 78.2987 314.355 78.616 316.651 77.2893L315.9 75.9906C314.178 76.9861 311.938 76.7458 310.465 75.2733L309.404 76.334Z" fill="white"/>
<path d="M35.28 172.758L37.6053 173.812L38.768 172.231H39.9306L41.0933 173.285H43.4186L44.5812 174.339L46.519 173.812H47.2941C47.5525 173.988 48.1467 174.339 48.4568 174.339C48.7668 174.339 51.1696 174.339 52.3323 174.339L53.8825 172.758H57.758L58.5331 173.285L59.6957 172.758L62.4086 172.231L63.5712 173.285H66.2841L67.0592 172.231L68.6094 173.812H76.3604L79.4608 174.339H84.8865L85.6616 174.866L87.2118 174.339L91.0873 175.92L98.4508 175.393L100.776 174.339C101.034 174.515 101.629 174.866 101.939 174.866C102.249 174.866 104.135 174.866 105.039 174.866L105.814 175.393L108.527 174.866H112.403H116.666L118.216 173.285H119.766L121.316 172.231L123.254 173.285H125.967L127.517 172.231L129.455 170.65H131.005L134.105 168.542L137.206 164.325L137.981 163.798L139.144 161.69L140.306 165.907L141.856 165.38L143.407 169.069L145.732 173.812L149.22 164.325L151.545 165.38L152.708 163.271L155.033 163.798L157.746 162.744L160.071 159.582L162.009 160.109L163.947 148.515L165.497 149.569L166.272 151.15H168.985L170.148 147.461L171.698 139.028L172.861 135.339L174.411 137.974L175.186 142.191L176.349 135.339L177.899 138.501L179.449 137.974L180.612 135.866L181.774 135.339L183.712 140.609L185.262 136.92L186.425 139.028L189.138 121.11L191.851 118.475L192.626 110.042L194.176 113.204L195.338 108.988L196.501 91.5964L198.051 96.3396L198.826 95.2856L200.377 99.5017L201.539 94.2315L204.252 101.083L205.415 112.677L206.577 119.002L207.74 110.042L210.453 117.421L211.616 113.204L212.778 111.623L213.941 105.299L215.879 107.934L217.816 112.15L218.592 120.056L220.142 121.11L221.304 116.893L222.467 119.002L225.18 117.421L226.343 112.15L227.505 111.623L230.218 115.312H231.768L232.543 110.569L235.256 107.934L236.419 111.623L238.744 105.826H240.294L242.232 102.137H243.782L244.945 101.083L247.658 88.9613L249.208 65.2453L249.983 57.34L251.146 75.7857L252.696 65.7723L255.021 77.3668H256.184L257.734 86.3262L258.897 72.6236L260.059 74.2047L260.835 76.8398L262.385 74.2047L263.547 83.6911L265.098 94.7585L266.26 87.3802L267.423 93.7045H268.973L270.136 98.4477L271.298 95.8126L272.461 100.029L274.786 77.8938L275.949 71.0425L277.499 76.8398L278.662 80.5289L279.825 78.9479L280.987 92.1234L282.537 92.6505L283.313 100.556L284.863 113.204L286.025 103.718L287.188 109.515H288.738L289.513 114.258L291.451 105.299L292.226 111.096L293.389 104.245L294.939 106.88L296.102 98.4477L297.652 90.5424L298.815 92.6505L299.59 89.4883L302.303 93.7045L303.465 97.9207L304.628 89.4883L306.178 88.4343L307.341 97.3937L308.891 100.556L309.666 112.15L311.216 117.948L313.541 111.096L314.704 116.366L315.867 120.583L317.417 125.326L318.58 124.799L319.742 121.11L320.905 126.38L323.23 142.191H324.78L325.943 145.353L328.268 139.555L329.431 126.38L332.144 120.056L333.307 116.893L334.857 120.583H336.019L337.182 127.434L339.507 122.164L341.058 117.421L342.22 123.745H343.77L344.546 130.069H346.096L347.258 128.488L348.034 129.015L350.746 121.637L351.909 115.839L353.072 106.353L354.622 101.083L356.172 102.664L357.335 100.556L357.722 97.3937L359.66 94.7585" stroke="#CEDBFF" stroke-width="2"/>
<path d="M22 27C22 20.9249 26.9249 16 33 16H127V38H33C26.9249 38 22 33.0751 22 27Z" fill="#0A4BFF"/>
<path d="M40.476 31.192C37.956 31.192 36.24 29.308 36.24 26.74C36.24 24.184 37.908 22.252 40.464 22.252C41.46 22.252 42.3 22.54 42.912 23.008C43.656 23.572 44.088 24.412 44.196 25.372H42.072C41.964 24.604 41.364 24.016 40.452 24.016C39.06 24.016 38.4 25.18 38.4 26.74C38.4 28.312 39.192 29.452 40.464 29.452C41.412 29.452 42.036 28.852 42.132 28.024H44.256C44.196 28.876 43.812 29.656 43.224 30.22C42.564 30.856 41.688 31.192 40.476 31.192ZM44.5891 31L47.6731 22.42H49.8571L52.9531 31H50.7211L50.2171 29.452H47.2171L46.7251 31H44.5891ZM47.7091 27.928H49.7251L49.0771 25.852C48.9331 25.408 48.7411 24.64 48.7411 24.64H48.7171C48.7171 24.64 48.5131 25.408 48.3691 25.852L47.7091 27.928ZM57.2805 31.204C55.0005 31.204 53.5005 30.196 53.4525 28.3H55.5885C55.6845 29.164 56.2485 29.524 57.2685 29.524C57.9645 29.524 58.6485 29.272 58.6485 28.624C58.6485 27.94 57.9525 27.796 56.7765 27.508C55.2885 27.16 53.7165 26.704 53.7165 24.904C53.7165 23.068 55.2045 22.264 57.1245 22.264C58.9845 22.264 60.4245 23.104 60.5085 24.904H58.4325C58.3485 24.244 57.8445 23.872 57.0525 23.872C56.3085 23.872 55.8165 24.196 55.8165 24.676C55.8165 25.276 56.4765 25.42 57.7605 25.708C59.3565 26.08 60.7965 26.572 60.7965 28.408C60.7965 30.208 59.2605 31.204 57.2805 31.204ZM62.1452 31V22.42H68.6492V24.172H64.2692V25.708H68.0252V27.364H64.2692V29.2H68.7212V31H62.1452ZM75.9236 31.204C73.6436 31.204 72.1436 30.196 72.0956 28.3H74.2316C74.3276 29.164 74.8916 29.524 75.9116 29.524C76.6076 29.524 77.2916 29.272 77.2916 28.624C77.2916 27.94 76.5956 27.796 75.4196 27.508C73.9316 27.16 72.3596 26.704 72.3596 24.904C72.3596 23.068 73.8476 22.264 75.7676 22.264C77.6276 22.264 79.0676 23.104 79.1516 24.904H77.0756C76.9916 24.244 76.4876 23.872 75.6956 23.872C74.9516 23.872 74.4596 24.196 74.4596 24.676C74.4596 25.276 75.1196 25.42 76.4036 25.708C77.9996 26.08 79.4396 26.572 79.4396 28.408C79.4396 30.208 77.9036 31.204 75.9236 31.204ZM82.5956 31V24.22H80.0996V22.42H87.2396V24.22H84.7196V31H82.5956ZM92.0505 31.156C89.6505 31.156 88.4505 29.98 88.4505 27.976V22.42H90.5745V28.048C90.5745 28.888 91.0065 29.452 92.0505 29.452C93.0345 29.452 93.5025 28.852 93.5025 28.012V22.42H95.6265V27.976C95.6265 29.956 94.4385 31.156 92.0505 31.156ZM99.3411 29.212H100.589C101.981 29.212 102.701 28.336 102.701 26.764C102.701 25.204 101.945 24.196 100.613 24.196H99.3411V29.212ZM97.2171 31V22.42H100.877C103.253 22.42 104.849 24.136 104.849 26.764C104.849 28.276 104.321 29.488 103.361 30.22C102.689 30.724 101.825 31 100.745 31H97.2171ZM107.701 31V27.832L104.797 22.42H107.113L108.217 24.64C108.505 25.228 108.781 25.948 108.781 25.948H108.805C108.805 25.948 109.105 25.228 109.393 24.64L110.485 22.42H112.729L109.825 27.832V31H107.701Z" fill="white"/>
<path d="M139.7 31V24.22H137.204V22.42H144.344V24.22H141.824V31H139.7ZM148.918 31.204C146.638 31.204 145.138 30.196 145.09 28.3H147.226C147.322 29.164 147.886 29.524 148.906 29.524C149.602 29.524 150.286 29.272 150.286 28.624C150.286 27.94 149.59 27.796 148.414 27.508C146.926 27.16 145.354 26.704 145.354 24.904C145.354 23.068 146.842 22.264 148.762 22.264C150.622 22.264 152.062 23.104 152.146 24.904H150.07C149.986 24.244 149.482 23.872 148.69 23.872C147.946 23.872 147.454 24.196 147.454 24.676C147.454 25.276 148.114 25.42 149.398 25.708C150.994 26.08 152.434 26.572 152.434 28.408C152.434 30.208 150.898 31.204 148.918 31.204ZM153.782 31V22.42H155.906V29.2H159.758V31H153.782ZM160.565 31L163.649 22.42H165.833L168.929 31H166.697L166.193 29.452H163.193L162.701 31H160.565ZM163.685 27.928H165.701L165.053 25.852C164.909 25.408 164.717 24.64 164.717 24.64H164.693C164.693 24.64 164.489 25.408 164.345 25.852L163.685 27.928Z" fill="#0A4BFF"/>
<path d="M128 17H172C177.523 17 182 21.4772 182 27C182 32.5228 177.523 37 172 37H128V17Z" stroke="#0A4BFF" stroke-width="2"/>
</svg>
